<svg width="178" height="34" viewBox="0 0 178 34" fill="none" xmlns="http://www.w3.org/2000/svg">
<path d="M34.875 11.3722C35.5057 11.3722 36.1088 11.4572 36.6846 11.6261C36.8237 11.6669 36.9618 11.7122 37.0977 11.7628C37.4998 11.9049 37.874 12.0864 38.2217 12.3058C38.3389 12.3797 38.4534 12.4574 38.5645 12.5402C38.7044 12.6445 38.8396 12.7558 38.9697 12.8741C39.1074 12.9969 39.238 13.1259 39.3604 13.2618C39.4216 13.3298 39.4807 13.3996 39.5381 13.4708C39.8247 13.8266 40.0642 14.2234 40.2559 14.6613C40.3749 14.9242 40.4715 15.2006 40.5459 15.4904C40.5707 15.5868 40.5925 15.6849 40.6123 15.7843C40.6663 16.0549 40.7005 16.3365 40.7178 16.629C40.7259 16.7666 40.7314 16.9065 40.7314 17.049C40.7314 18.1602 40.4886 19.1264 40.002 19.9474C39.5152 20.7684 38.8746 21.4143 38.0811 21.8849V21.8859L39.5254 24.0031H37.7637L36.7158 22.4855C36.2716 22.6131 35.8157 22.6938 35.3477 22.7257C35.1915 22.7364 35.0338 22.7413 34.875 22.7413C34.0815 22.7413 33.33 22.611 32.6211 22.3507C31.923 22.0904 31.3041 21.7151 30.7646 21.2247C30.3599 20.8492 30.0171 20.417 29.7373 19.9288C29.6442 19.7663 29.5578 19.597 29.4785 19.422C29.4677 19.3973 29.4587 19.3718 29.4482 19.3468C29.1627 18.6645 29.0186 17.899 29.0186 17.049C29.0186 16.158 29.1718 15.3621 29.4785 14.6613C29.5578 14.4862 29.6442 14.3173 29.7373 14.1554C30.017 13.6691 30.3599 13.2421 30.7646 12.8741C31.0397 12.6289 31.3334 12.4138 31.6455 12.2286C31.8796 12.0897 32.124 11.9676 32.3789 11.8624C32.4637 11.8274 32.5496 11.7941 32.6367 11.7628C32.7453 11.7229 32.8555 11.6862 32.9658 11.6525C33.5757 11.4659 34.2121 11.3722 34.875 11.3722ZM58.5273 11.3722C59.3103 11.3722 60.0517 11.5025 60.75 11.7628C61.1045 11.888 61.4378 12.0433 61.75 12.2286C61.8279 12.2749 61.9042 12.3232 61.9795 12.3732C62.2056 12.5233 62.4198 12.6903 62.6221 12.8741C62.7597 12.9969 62.8903 13.126 63.0127 13.2618C63.0739 13.3298 63.133 13.3996 63.1904 13.4708C63.3624 13.6843 63.5174 13.9124 63.6553 14.1554C63.7012 14.2364 63.745 14.3192 63.7871 14.4034C63.8293 14.4878 63.8698 14.5736 63.9082 14.6613C63.9479 14.7489 63.9848 14.8382 64.0195 14.9288C64.1237 15.2007 64.2061 15.4857 64.2656 15.7843C64.3251 16.0828 64.3621 16.3946 64.377 16.7198C64.3819 16.8281 64.3848 16.9378 64.3848 17.049C64.3848 17.9301 64.2256 18.7211 63.9082 19.422C63.7735 19.7297 63.6151 20.0172 63.4355 20.2863C63.2685 20.5366 63.0828 20.7705 62.877 20.9874C62.8 21.0685 62.721 21.1483 62.6387 21.2247C62.0991 21.7153 61.4745 22.0904 60.7656 22.3507C60.7081 22.3721 60.6499 22.3916 60.5918 22.4113C60.5354 22.4303 60.4788 22.4485 60.4219 22.4659C59.8238 22.6487 59.1922 22.7413 58.5273 22.7413C57.7341 22.7413 56.9831 22.6109 56.2744 22.3507C55.5761 22.0904 54.9566 21.7153 54.417 21.2247C53.8774 20.7241 53.4493 20.1228 53.1318 19.422C52.825 18.7211 52.6709 17.9301 52.6709 17.049C52.6709 16.3809 52.7573 15.7663 52.9297 15.2052C52.9714 15.0693 53.0204 14.9374 53.0723 14.8077C53.0919 14.7587 53.1107 14.7094 53.1318 14.6613C53.4401 13.9806 53.8533 13.3995 54.3711 12.9171L54.417 12.8741C54.8983 12.4449 55.4365 12.1077 56.0312 11.8624C56.1164 11.8273 56.2026 11.7942 56.29 11.7628C56.4671 11.6978 56.6464 11.6407 56.8281 11.5919C57.0101 11.5431 57.1943 11.5024 57.3809 11.4698C57.6552 11.422 57.9344 11.3917 58.2188 11.379C58.321 11.3745 58.4238 11.3722 58.5273 11.3722ZM77.4893 11.5529V17.9054L77.4912 18.1212C77.492 18.1584 77.4949 18.1951 77.4961 18.2316C77.4979 18.2894 77.5001 18.3464 77.5029 18.4025C77.5065 18.4722 77.5115 18.5406 77.5166 18.6075C77.5209 18.6639 77.5249 18.7192 77.5303 18.7736C77.5375 18.846 77.5465 18.9165 77.5557 18.9855C77.5619 19.0322 77.5681 19.0781 77.5752 19.1232C77.585 19.1853 77.5969 19.2457 77.6084 19.3048C77.6171 19.3492 77.6251 19.393 77.6348 19.4357C77.6518 19.5111 77.6714 19.5834 77.6914 19.6534C77.698 19.6767 77.703 19.7001 77.71 19.7228C77.7301 19.7883 77.7534 19.8507 77.7764 19.9113C77.7876 19.9408 77.7967 19.9707 77.8086 19.9991C77.8315 20.0539 77.8584 20.105 77.8838 20.1554C77.8953 20.1783 77.9049 20.2018 77.917 20.2238C77.9206 20.2303 77.9241 20.2368 77.9277 20.2433C77.9617 20.3037 77.9972 20.3608 78.0352 20.4142C78.0386 20.419 78.0415 20.4241 78.0449 20.4288C78.0473 20.4319 78.0504 20.4346 78.0527 20.4376C78.0908 20.487 78.1312 20.5338 78.1738 20.5782C78.18 20.5847 78.1861 20.5914 78.1924 20.5978C78.2391 20.6451 78.2888 20.6891 78.3408 20.7306C78.3461 20.7348 78.3511 20.7392 78.3564 20.7433C78.4047 20.7809 78.4551 20.816 78.5078 20.8488C78.5219 20.8575 78.5364 20.8657 78.5508 20.8741C78.5999 20.9028 78.6513 20.9286 78.7041 20.9532C78.7207 20.961 78.737 20.9694 78.7539 20.9767C78.7818 20.9887 78.811 20.9979 78.8398 21.0089C78.8918 21.0287 78.9449 21.0473 79 21.0636C79.026 21.0713 79.0524 21.0782 79.0791 21.0851C79.1353 21.0996 79.1926 21.1131 79.252 21.1241C79.2802 21.1294 79.3089 21.1333 79.3379 21.1378C79.3995 21.1473 79.4625 21.1553 79.5273 21.1613C79.556 21.1639 79.5849 21.1661 79.6143 21.1681C79.6478 21.1703 79.6815 21.1755 79.7158 21.1769L79.8701 21.1798C79.9736 21.1798 80.0736 21.1756 80.1699 21.1681C80.1758 21.1676 80.1816 21.1666 80.1875 21.1661C80.2787 21.1586 80.3665 21.1473 80.4512 21.1329C80.4565 21.132 80.4615 21.13 80.4668 21.129C80.548 21.1148 80.626 21.0978 80.7012 21.0773C80.7201 21.0721 80.7383 21.0653 80.7568 21.0597C80.8146 21.0423 80.8707 21.0243 80.9248 21.0031C80.9798 20.9815 81.0328 20.9583 81.084 20.9327C81.0948 20.9273 81.1055 20.9217 81.1162 20.9161C81.1729 20.8865 81.2274 20.8551 81.2793 20.8204C81.2906 20.8129 81.3014 20.8048 81.3125 20.797C81.3602 20.7634 81.4067 20.7287 81.4502 20.6906C81.4634 20.679 81.4755 20.6664 81.4883 20.6544C81.5296 20.6158 81.5701 20.5762 81.6074 20.5333L81.6797 20.4435C81.6835 20.4385 81.6867 20.433 81.6904 20.4279C81.723 20.3836 81.7535 20.3362 81.7832 20.2863C81.7959 20.2649 81.8082 20.2432 81.8203 20.2208C81.846 20.1736 81.8703 20.1242 81.8936 20.0724C81.9011 20.0555 81.9097 20.0389 81.917 20.0216C81.9295 19.992 81.9394 19.9608 81.9512 19.9298C81.9716 19.876 81.9926 19.8209 82.0107 19.7628C82.0269 19.7113 82.0403 19.6576 82.0547 19.6027C82.0648 19.564 82.0757 19.5248 82.085 19.4845C82.1004 19.4172 82.1139 19.3475 82.127 19.2755C82.1339 19.2374 82.1412 19.1987 82.1475 19.1593C82.1553 19.1099 82.1612 19.0594 82.168 19.0079C82.1779 18.9319 82.1886 18.854 82.1963 18.7736C82.2002 18.7328 82.2028 18.6914 82.2061 18.6495C82.2124 18.5686 82.2176 18.4857 82.2217 18.4005C82.2243 18.3473 82.2268 18.2933 82.2285 18.2384C82.2297 18.2016 82.2326 18.1646 82.2334 18.1271L82.2354 17.9054V11.5529H84.0283V17.8751C84.0283 19.417 83.6899 20.6139 83.0127 21.465C82.3355 22.3158 81.2878 22.7413 79.8701 22.7413C78.8544 22.7413 78.0394 22.5459 77.4258 22.1554C76.8229 21.765 76.3835 21.2045 76.1084 20.4738C75.8439 19.7429 75.7119 18.8763 75.7119 17.8751V11.5529H77.4893ZM144.081 11.3868C144.589 11.3868 145.01 11.4557 145.37 11.5558C145.55 11.6059 145.764 11.703 145.933 11.7872C146.101 11.8714 146.226 11.9435 146.226 11.9435L146.245 13.7179C146.065 13.5377 145.569 13.2939 145.209 13.1437C145.134 13.1102 145.056 13.0813 144.978 13.0548C144.971 13.0526 144.964 13.0511 144.958 13.049C144.796 12.9959 144.627 12.9565 144.449 12.9327C144.445 12.9321 144.44 12.9323 144.436 12.9318C144.296 12.9137 144.151 12.9034 144.002 12.9034C143.613 12.9035 143.284 12.9684 143.015 13.0978C142.925 13.1409 142.841 13.1916 142.765 13.2491L142.708 13.2921C142.699 13.2991 142.692 13.3074 142.684 13.3146C142.667 13.329 142.65 13.3433 142.635 13.3585C142.62 13.3734 142.605 13.3888 142.591 13.4044C142.575 13.4219 142.559 13.4397 142.545 13.4581C142.534 13.4724 142.523 13.4872 142.513 13.5021C142.498 13.5234 142.483 13.545 142.47 13.5675C142.461 13.5827 142.453 13.5986 142.444 13.6144C142.433 13.6355 142.422 13.6567 142.412 13.6788C142.404 13.6972 142.398 13.7165 142.391 13.7355C142.383 13.7567 142.374 13.7779 142.367 13.7999C142.361 13.8188 142.357 13.8381 142.352 13.8575C142.345 13.8835 142.337 13.9096 142.332 13.9366C142.314 14.0313 142.304 14.1325 142.304 14.2404L142.306 14.3136C142.306 14.3241 142.308 14.3344 142.309 14.3448C142.31 14.3645 142.311 14.384 142.313 14.4034C142.317 14.4334 142.32 14.463 142.325 14.4923C142.328 14.5091 142.332 14.5256 142.335 14.5421C142.34 14.5685 142.347 14.5944 142.354 14.6202C142.358 14.6366 142.362 14.6529 142.367 14.6691C142.377 14.7008 142.387 14.732 142.399 14.7628C142.403 14.7716 142.406 14.7805 142.409 14.7892C142.42 14.8154 142.433 14.8408 142.445 14.8663C142.453 14.8829 142.461 14.8999 142.47 14.9161C142.479 14.9334 142.49 14.95 142.5 14.9669C142.513 14.9885 142.526 15.0103 142.54 15.0314C142.591 15.1065 142.65 15.1787 142.717 15.2472C142.786 15.3147 142.859 15.3814 142.937 15.4464C143.015 15.5115 143.097 15.5753 143.185 15.6378C143.359 15.7629 143.552 15.8831 143.764 15.9982C144.197 16.2184 144.643 16.4437 145.098 16.674L145.139 16.6954C145.401 16.8306 145.644 16.9805 145.871 17.1427C146.023 17.2512 146.168 17.3648 146.304 17.4855C146.375 17.5455 146.444 17.6093 146.51 17.6769C146.576 17.7445 146.639 17.8157 146.7 17.8907C146.822 18.0409 146.934 18.2057 147.034 18.3859L147.104 18.5236C147.155 18.6301 147.197 18.7406 147.23 18.8546C147.3 19.0883 147.335 19.3378 147.335 19.6027C147.335 20.2833 147.166 20.8587 146.827 21.3292C146.499 21.7998 146.055 22.1553 145.494 22.3956C144.933 22.6259 144.299 22.7413 143.59 22.7413C143.145 22.7413 142.706 22.691 142.272 22.5909C141.839 22.4808 141.391 22.29 141.053 22.1398L141.033 20.1896C141.15 20.2797 141.489 20.5042 141.732 20.6544C141.923 20.7595 142.134 20.8563 142.366 20.9445C142.444 20.9739 142.523 21.0019 142.605 21.0294L142.729 21.0685C142.752 21.0755 142.777 21.0796 142.801 21.0861C142.832 21.0945 142.863 21.103 142.895 21.1105C142.948 21.1231 143.001 21.1339 143.055 21.1437C143.073 21.147 143.091 21.1504 143.109 21.1534C143.18 21.1651 143.251 21.1743 143.322 21.1808C143.331 21.1816 143.34 21.183 143.349 21.1837C143.429 21.1903 143.51 21.1945 143.59 21.1945C143.741 21.1944 143.885 21.184 144.021 21.1652C144.129 21.1504 144.232 21.131 144.331 21.1046C144.443 21.0746 144.55 21.0373 144.651 20.9923C144.702 20.9697 144.752 20.9455 144.8 20.9191C144.848 20.8928 144.894 20.8641 144.938 20.8341C145.029 20.7755 145.107 20.7096 145.176 20.6378C145.188 20.6252 145.199 20.6118 145.21 20.5988C145.231 20.5743 145.252 20.5495 145.271 20.5236C145.28 20.5099 145.29 20.4957 145.299 20.4816C145.315 20.4572 145.331 20.4329 145.345 20.4073C145.357 20.3848 145.368 20.3615 145.379 20.338C145.389 20.3171 145.398 20.2961 145.406 20.2745C145.415 20.2521 145.423 20.2294 145.431 20.2062C145.438 20.1828 145.445 20.1591 145.451 20.1349C145.457 20.1118 145.462 20.0884 145.467 20.0646C145.473 20.0345 145.478 20.004 145.481 19.9728C145.484 19.9547 145.485 19.9365 145.486 19.9181C145.488 19.9016 145.491 19.8851 145.492 19.8683L145.494 19.7833C145.494 19.7356 145.493 19.6884 145.489 19.6427C145.466 19.3241 145.362 19.0551 145.177 18.8361C144.965 18.5858 144.685 18.3651 144.336 18.1749C143.997 17.9847 143.627 17.8051 143.225 17.6349C142.833 17.4547 142.457 17.2545 142.098 17.0343C141.685 16.774 141.325 16.4277 141.019 15.9972C140.712 15.5667 140.559 15.011 140.559 14.3302C140.559 14.2524 140.561 14.1763 140.565 14.1017C140.575 13.9355 140.594 13.7772 140.625 13.6271C140.67 13.4093 140.737 13.2086 140.826 13.0245C140.886 12.9019 140.955 12.7865 141.034 12.6788C141.107 12.5832 141.185 12.4931 141.268 12.4083C141.558 12.1113 141.909 11.8815 142.32 11.7179C142.455 11.6629 142.593 11.6146 142.733 11.5734C142.804 11.5527 142.875 11.534 142.947 11.5167C143.305 11.431 143.681 11.3872 144.076 11.3868C144.078 11.3868 144.079 11.3868 144.081 11.3868ZM154.533 11.3722C155.134 11.3722 155.709 11.4486 156.26 11.6017C156.427 11.6482 156.592 11.7021 156.755 11.7628C157.157 11.9049 157.532 12.0863 157.88 12.3058C158.145 12.473 158.395 12.662 158.628 12.8741C158.766 12.9969 158.896 13.1259 159.019 13.2618C159.08 13.3296 159.139 13.3988 159.196 13.4698C159.368 13.6835 159.523 13.9122 159.661 14.1554C159.707 14.2364 159.751 14.3192 159.793 14.4034C159.835 14.4878 159.876 14.5736 159.914 14.6613C159.954 14.7489 159.991 14.8382 160.025 14.9288C160.13 15.2006 160.211 15.4858 160.271 15.7843C160.324 16.0549 160.359 16.3365 160.376 16.629C160.384 16.7666 160.39 16.9065 160.39 17.049C160.39 17.93 160.231 18.7211 159.914 19.422C159.634 20.0623 159.255 20.6178 158.78 21.0909C158.735 21.1359 158.69 21.1813 158.644 21.2247L158.632 21.2355C158.095 21.7206 157.475 22.0924 156.771 22.3507C156.51 22.4483 156.241 22.528 155.966 22.589C155.507 22.6907 155.029 22.7413 154.533 22.7413L154.298 22.7365C153.591 22.7131 152.918 22.5852 152.279 22.3507C151.581 22.0904 150.962 21.7151 150.423 21.2247C149.883 20.7241 149.454 20.1229 149.137 19.422C148.83 18.7211 148.677 17.93 148.677 17.049C148.677 16.158 148.83 15.3621 149.137 14.6613C149.454 13.9604 149.883 13.3648 150.423 12.8741C150.973 12.3835 151.598 12.0131 152.296 11.7628C153.005 11.5026 153.75 11.3722 154.533 11.3722ZM174.748 11.3868C175.248 11.387 175.663 11.4541 176.02 11.5519C176.025 11.5533 176.03 11.5544 176.035 11.5558L176.175 11.6017C176.243 11.6266 176.313 11.6563 176.382 11.6866C176.649 11.8049 176.891 11.9435 176.891 11.9435L176.91 13.7179C176.86 13.6681 176.786 13.6148 176.697 13.5587C176.465 13.4117 176.134 13.2524 175.873 13.1437C175.8 13.1113 175.726 13.0835 175.649 13.0577C175.64 13.0544 175.63 13.0502 175.62 13.047C175.459 12.9945 175.291 12.9563 175.114 12.9327C175.109 12.9321 175.104 12.9324 175.1 12.9318C174.96 12.9138 174.816 12.9034 174.667 12.9034C174.278 12.9035 173.949 12.9684 173.68 13.0978C173.589 13.141 173.506 13.1914 173.429 13.2491C173.4 13.2695 173.374 13.2923 173.349 13.3146C173.131 13.503 173.006 13.7578 172.977 14.0812C172.972 14.1325 172.969 14.1856 172.969 14.2404L172.971 14.3136C172.971 14.3241 172.973 14.3344 172.974 14.3448C172.975 14.3645 172.976 14.384 172.979 14.4034C172.982 14.4334 172.985 14.463 172.99 14.4923C172.993 14.5091 172.997 14.5256 173 14.5421C173.005 14.5685 173.012 14.5944 173.019 14.6202C173.023 14.6366 173.027 14.6529 173.032 14.6691C173.039 14.6922 173.047 14.7148 173.056 14.7374C173.063 14.7564 173.069 14.7754 173.077 14.7941C173.086 14.8156 173.096 14.8365 173.106 14.8575C173.117 14.879 173.126 14.901 173.138 14.922C173.146 14.9373 173.156 14.9518 173.165 14.9669C173.178 14.9885 173.191 15.0103 173.205 15.0314C173.256 15.1065 173.315 15.1786 173.382 15.2472C173.451 15.3147 173.524 15.3814 173.602 15.4464C173.68 15.5115 173.762 15.5753 173.85 15.6378C174.024 15.7629 174.217 15.8831 174.429 15.9982C174.863 16.2185 175.308 16.4437 175.763 16.674L175.804 16.6954C176.066 16.8306 176.309 16.9805 176.536 17.1427C176.688 17.2512 176.833 17.3648 176.969 17.4855C177.04 17.5455 177.109 17.6093 177.175 17.6769C177.241 17.7445 177.304 17.8157 177.365 17.8907C177.487 18.0408 177.598 18.2058 177.698 18.3859L177.77 18.5236C177.82 18.6302 177.862 18.7406 177.896 18.8546C177.93 18.9709 177.955 19.091 177.973 19.215C177.99 19.3376 178 19.4638 178 19.5939C178 19.5966 178 19.5999 178 19.6027C178 20.2833 177.831 20.8587 177.492 21.3292C177.164 21.7998 176.72 22.1553 176.159 22.3956C175.598 22.6259 174.964 22.7413 174.255 22.7413C173.811 22.7413 173.371 22.691 172.938 22.5909C172.504 22.4808 172.056 22.29 171.718 22.1398L171.698 20.1896C171.756 20.2346 171.87 20.3135 172 20.3995C172.13 20.4856 172.276 20.5793 172.397 20.6544C172.651 20.7945 172.943 20.9193 173.271 21.0294C173.435 21.0845 173.599 21.1259 173.763 21.1534C173.845 21.1672 173.927 21.1778 174.009 21.1847C174.091 21.1916 174.173 21.1945 174.255 21.1945C174.406 21.1944 174.55 21.184 174.687 21.1652C174.794 21.1504 174.897 21.131 174.996 21.1046C175.109 21.0745 175.216 21.0375 175.317 20.9923C175.368 20.9698 175.417 20.9453 175.465 20.9191C175.513 20.8928 175.559 20.8641 175.604 20.8341C175.974 20.5939 176.159 20.2437 176.159 19.7833C176.159 19.7694 176.158 19.7551 176.158 19.7413C176.151 19.3792 176.046 19.0773 175.842 18.8361C175.63 18.5858 175.35 18.3651 175.001 18.1749C174.662 17.9847 174.292 17.8051 173.89 17.6349C173.498 17.4547 173.122 17.2545 172.763 17.0343C172.35 16.774 171.99 16.4277 171.684 15.9972C171.377 15.5667 171.223 15.011 171.223 14.3302C171.223 13.8274 171.313 13.3923 171.491 13.0245C171.551 12.9019 171.62 12.7865 171.699 12.6788C171.772 12.5832 171.85 12.4931 171.933 12.4083C172.223 12.1113 172.574 11.8815 172.985 11.7179C173.12 11.6629 173.258 11.6146 173.398 11.5734C173.469 11.5527 173.54 11.534 173.612 11.5167C173.97 11.431 174.346 11.3872 174.741 11.3868H174.748ZM44.3203 11.5529V17.9054L44.3223 18.1212C44.323 18.1584 44.326 18.1951 44.3271 18.2316C44.3288 18.2837 44.3305 18.3352 44.333 18.3859C44.3366 18.459 44.3414 18.5306 44.3467 18.6007C44.3514 18.6634 44.3562 18.725 44.3623 18.7853C44.3693 18.854 44.378 18.9209 44.3867 18.9865C44.3922 19.0274 44.3972 19.0678 44.4033 19.1075C44.4154 19.1859 44.4295 19.2616 44.4443 19.3351C44.4512 19.3691 44.4574 19.4027 44.4648 19.4357C44.4786 19.4968 44.495 19.5558 44.5107 19.6134C44.5219 19.6542 44.5318 19.6945 44.5439 19.7335C44.5624 19.7928 44.5837 19.8493 44.6045 19.9044C44.6154 19.9333 44.6242 19.9626 44.6357 19.9904C44.6616 20.0527 44.6907 20.1114 44.7197 20.1681C44.7292 20.1867 44.7372 20.2058 44.7471 20.2238C44.7514 20.2317 44.7563 20.2393 44.7607 20.2472C44.7937 20.3056 44.8286 20.3605 44.8652 20.4122C44.869 20.4176 44.8721 20.4235 44.876 20.4288C44.8799 20.434 44.8847 20.4384 44.8887 20.4435C44.9234 20.4881 44.9596 20.5309 44.998 20.5714C45.0079 20.5818 45.0173 20.5926 45.0273 20.6027C45.0678 20.6432 45.111 20.6806 45.1553 20.7169C45.1667 20.7263 45.1777 20.7362 45.1895 20.7452C45.2345 20.7802 45.2821 20.8121 45.3311 20.8429C45.3494 20.8545 45.3678 20.8661 45.3867 20.8771C45.436 20.9056 45.4871 20.9317 45.54 20.9562C45.5543 20.9628 45.5685 20.9694 45.583 20.9757C45.6128 20.9886 45.6439 20.9992 45.6748 21.0109C45.7249 21.0298 45.776 21.0479 45.8291 21.0636C45.8567 21.0717 45.8847 21.0788 45.9131 21.0861C45.9674 21.1 46.0229 21.1125 46.0801 21.1232C46.1103 21.1288 46.1408 21.134 46.1719 21.1388C46.2322 21.1481 46.294 21.1554 46.3574 21.1613C46.3864 21.1639 46.4157 21.1661 46.4453 21.1681C46.4788 21.1703 46.5126 21.1756 46.5469 21.1769L46.7002 21.1798C46.8008 21.1798 46.8984 21.1752 46.9922 21.1681C47.0934 21.1604 47.1908 21.1498 47.2842 21.1339C47.5538 21.0879 47.7909 21.0076 47.9951 20.8927C48.0292 20.8735 48.0624 20.8533 48.0947 20.8322C48.1915 20.7689 48.28 20.6969 48.3604 20.6163C48.414 20.5626 48.4644 20.5049 48.5107 20.4435C48.5507 20.3906 48.5874 20.3328 48.623 20.2716C48.6285 20.2622 48.6343 20.2529 48.6396 20.2433C48.6715 20.1864 48.7002 20.1254 48.7285 20.0616C48.7343 20.0487 48.7405 20.0358 48.7461 20.0226C48.7588 19.9926 48.7693 19.9613 48.7812 19.9298C48.8018 19.8755 48.8225 19.8195 48.8408 19.7609C48.8508 19.729 48.8598 19.6964 48.8691 19.6632C48.8868 19.6003 48.9037 19.5354 48.9189 19.4679C48.927 19.4321 48.934 19.3956 48.9414 19.3585C48.9557 19.287 48.9697 19.2132 48.9814 19.1368C48.9886 19.0902 48.9947 19.0427 49.001 18.9943C49.0093 18.9297 49.0178 18.8638 49.0244 18.796C49.0305 18.7345 49.0354 18.6717 49.04 18.6075C49.0449 18.5406 49.0493 18.4723 49.0527 18.4025C49.0553 18.3486 49.0569 18.2939 49.0586 18.2384C49.0597 18.2016 49.0627 18.1646 49.0635 18.1271L49.0654 17.9054V11.5529H50.8594V17.8751L50.8555 18.1603C50.851 18.3201 50.8413 18.4761 50.8291 18.6281C50.8281 18.6401 50.8282 18.6522 50.8271 18.6642C50.8192 18.7575 50.8097 18.8493 50.7988 18.9396C50.7805 19.0923 50.7581 19.2407 50.7314 19.3849C50.7218 19.4369 50.7109 19.4883 50.7002 19.5392C50.5384 20.3075 50.2537 20.9498 49.8438 21.465C49.1666 22.316 48.118 22.7404 46.7002 22.7404C45.6848 22.7403 44.8704 22.5458 44.2568 22.1554C43.6538 21.765 43.2146 21.2045 42.9395 20.4738C42.6749 19.7429 42.542 18.8763 42.542 17.8751V11.5529H44.3203ZM69.0205 11.5529C69.5906 11.5566 70.1412 11.6117 70.6719 11.7179L70.8789 11.7628C70.9872 11.7884 71.093 11.8172 71.1963 11.8488C71.5477 11.9561 71.8707 12.0975 72.1641 12.2736C72.5538 12.5076 72.8707 12.8103 73.1152 13.1818C73.1428 13.2236 73.1696 13.2661 73.1953 13.3097L73.2051 13.3282C73.4518 13.7555 73.5762 14.2797 73.5762 14.9015C73.5761 15.6323 73.3958 16.2681 73.0361 16.8087C72.6764 17.3493 72.1313 17.7655 71.4014 18.0558L74.1777 22.5909H72.1318L69.7832 18.4161H69.7822L69.7539 18.4171C69.5793 18.4266 69.3667 18.436 69.1162 18.4454H68.0371V22.5909H66.3066V11.5529H69.0205ZM87.9531 11.5529L91.1592 17.5157L92.1123 19.5128L93.0645 17.5148L96.207 11.5529H96.3809L98.8887 22.5909H97.1436L95.9688 17.4396L95.6191 15.8771L94.9844 17.4396L92.1592 22.5909H92.0645L89.2549 17.4396L88.5244 15.8771L88.1914 17.4396L87.1123 22.5909H85.3506L87.7627 11.5529H87.9531ZM108.612 11.5372L114.23 22.5909H112.184L111.185 20.4279H105.835L104.835 22.5909H102.853L108.438 11.5372H108.612ZM117.956 11.5529C118.087 11.5529 118.216 11.5543 118.342 11.5577C118.538 11.5631 118.729 11.5733 118.913 11.587C119.556 11.635 120.126 11.7332 120.622 11.8829C121.362 12.1031 121.971 12.3984 122.447 12.7687L122.621 12.9064C122.699 12.9712 122.773 13.0384 122.845 13.1066C122.912 13.1706 122.976 13.2359 123.038 13.3029C123.242 13.5246 123.416 13.762 123.559 14.0157C123.765 14.3613 123.924 14.718 124.035 15.0861C124.054 15.1473 124.071 15.2088 124.087 15.2706C124.103 15.3324 124.117 15.3947 124.13 15.4572C124.206 15.8112 124.254 16.1578 124.275 16.4962C124.284 16.6266 124.289 16.7559 124.289 16.8839C124.289 17.5747 124.183 18.2607 123.972 18.9415C123.771 19.6122 123.432 20.223 122.956 20.7736C122.48 21.3243 121.839 21.7654 121.035 22.0958C120.242 22.4262 119.246 22.5909 118.051 22.5909H115.146V11.5529H117.956ZM126.412 11.5529L129.903 19.1368L133.411 11.5529H135.411L130.03 22.5909H129.793L124.396 11.5529H126.412ZM138.288 11.5529V22.5909H136.51V11.5529H138.288ZM165.025 11.5529C165.596 11.5566 166.146 11.6117 166.677 11.7179C167.238 11.828 167.735 12.0132 168.169 12.2736C168.524 12.4867 168.818 12.7569 169.053 13.0841C169.105 13.1566 169.154 13.2316 169.2 13.3097C169.359 13.5789 169.469 13.887 169.528 14.2345C169.552 14.3734 169.567 14.5186 169.575 14.67C169.579 14.7456 169.581 14.8228 169.581 14.9015C169.581 15.267 169.536 15.6089 169.446 15.9269C169.396 16.1045 169.33 16.2739 169.252 16.4366C169.202 16.541 169.146 16.6421 169.084 16.7404C169.07 16.7629 169.057 16.7865 169.042 16.8087C168.682 17.3494 168.137 17.7654 167.407 18.0558L170.184 22.5909H168.138L165.788 18.4161C165.608 18.4261 165.386 18.4354 165.122 18.4454H164.043V22.5909H162.312V11.5529H165.025ZM34.875 12.9034C34.145 12.9035 33.4781 13.0635 32.875 13.3839C32.8657 13.3888 32.8569 13.3946 32.8477 13.3995L32.7656 13.4445C32.7518 13.4524 32.7383 13.4618 32.7246 13.4698C32.6872 13.4919 32.6497 13.5138 32.6133 13.5372C32.5738 13.5626 32.5354 13.5894 32.4971 13.6163C32.4728 13.6334 32.4486 13.6504 32.4248 13.6681C32.3864 13.6966 32.3487 13.7259 32.3115 13.756C32.2937 13.7704 32.2753 13.7841 32.2578 13.799L32.1992 13.8497C32.1784 13.8682 32.1591 13.8884 32.1387 13.9073C32.1174 13.9271 32.095 13.9456 32.0742 13.9659L32.0293 14.0109C32.0073 14.0331 31.9873 14.0573 31.9658 14.0802C31.9381 14.1099 31.9087 14.1382 31.8818 14.1691C31.8564 14.1983 31.8333 14.2297 31.8086 14.2599C31.7825 14.2918 31.7547 14.3225 31.7295 14.3556C31.7258 14.3604 31.7224 14.3654 31.7188 14.3702L31.5869 14.5558C31.5847 14.5591 31.5823 14.5622 31.5801 14.5656C31.5338 14.6352 31.4892 14.7073 31.4463 14.7814C31.4202 14.8257 31.3973 14.8721 31.373 14.9181C31.2053 15.2364 31.0836 15.5921 31.0068 15.9865C30.9802 16.123 30.9561 16.2636 30.9404 16.4093C30.9261 16.5431 30.9192 16.6809 30.9141 16.8224C30.9112 16.9019 30.9072 16.9827 30.9072 17.0646C30.9072 17.6277 30.9794 18.1363 31.124 18.59C31.153 18.6807 31.185 18.7692 31.2197 18.8556C31.2891 19.0283 31.3704 19.1926 31.4629 19.3478C31.8332 19.9583 32.3199 20.4239 32.9229 20.7443L33.0361 20.8029C33.0666 20.8179 33.0982 20.8306 33.1289 20.8448C33.142 20.8509 33.1548 20.8575 33.168 20.8634C33.2248 20.889 33.2822 20.9128 33.3398 20.9357C33.3616 20.9443 33.3834 20.9528 33.4053 20.9611C33.4679 20.9847 33.5311 21.0061 33.5947 21.0265C33.6055 21.03 33.6161 21.0339 33.627 21.0372C33.8584 21.1095 34.0959 21.1603 34.3398 21.1906C34.3597 21.193 34.3795 21.1952 34.3994 21.1974C34.4628 21.2043 34.5266 21.2099 34.5908 21.214C34.6119 21.2153 34.6331 21.2168 34.6543 21.2179C34.6842 21.2194 34.7141 21.2219 34.7441 21.2228L34.875 21.2247C35.1924 21.2247 35.4997 21.195 35.7959 21.1349V21.1339L34.7334 19.4982H36.5098L37.1924 20.549C37.3787 20.4214 37.5509 20.2767 37.709 20.1154C37.7618 20.0614 37.8136 20.006 37.8633 19.9484C38.0616 19.718 38.2347 19.4574 38.3828 19.1671C38.4587 19.0209 38.5249 18.8678 38.582 18.7081C38.5915 18.6818 38.5995 18.6548 38.6084 18.6281C38.6258 18.5759 38.6427 18.5234 38.6582 18.4698C38.6696 18.4302 38.6801 18.3901 38.6904 18.3497C38.6996 18.3139 38.7084 18.2778 38.7168 18.2413C38.7277 18.194 38.7376 18.1461 38.7471 18.0978C38.7561 18.0517 38.7647 18.0052 38.7725 17.9581C38.7783 17.9226 38.784 17.8868 38.7891 17.8507C38.7963 17.7998 38.8019 17.7484 38.8076 17.6964C38.813 17.648 38.8182 17.5992 38.8223 17.5499C38.8263 17.5006 38.8302 17.4508 38.833 17.4005C38.8351 17.363 38.8365 17.3252 38.8379 17.2872C38.8388 17.2633 38.8412 17.2391 38.8418 17.215L38.8428 17.0646C38.8428 16.8821 38.8338 16.7057 38.8193 16.5353C38.7618 15.8547 38.5914 15.2699 38.3037 14.7814C37.944 14.1606 37.4625 13.6943 36.8594 13.3839C36.7407 13.3198 36.6183 13.2643 36.4941 13.213C36.4729 13.2042 36.4521 13.1941 36.4307 13.1857L36.4014 13.174C36.3521 13.1551 36.3021 13.1381 36.252 13.1212C36.2354 13.1156 36.2188 13.11 36.2021 13.1046C36.1374 13.0837 36.072 13.0646 36.0059 13.047C35.9945 13.044 35.9831 13.0411 35.9717 13.0382C35.9136 13.0233 35.855 13.0096 35.7959 12.9972C35.7719 12.9922 35.7478 12.9872 35.7236 12.9825C35.6697 12.9722 35.6153 12.9635 35.5605 12.9552C35.5314 12.9508 35.5021 12.9463 35.4727 12.9425C35.4184 12.9355 35.3637 12.93 35.3086 12.9249C35.281 12.9224 35.2534 12.9201 35.2256 12.9181C35.1678 12.9138 35.1095 12.9104 35.0508 12.9083C35.0378 12.9079 35.0248 12.9067 35.0117 12.9064L34.9414 12.9044C34.9194 12.9041 34.8971 12.9034 34.875 12.9034ZM58.5273 12.9034C57.7976 12.9035 57.1312 13.0637 56.5283 13.3839C56.5238 13.3863 56.5191 13.3893 56.5146 13.3917L56.418 13.4445C56.3978 13.456 56.3783 13.4687 56.3584 13.4806C56.3324 13.4961 56.3068 13.5122 56.2812 13.5284C56.2373 13.5563 56.1938 13.5846 56.1514 13.6144C56.1262 13.632 56.1018 13.6507 56.0771 13.6691C56.0428 13.6945 56.0089 13.7204 55.9756 13.7472C55.9431 13.7733 55.9104 13.799 55.8789 13.8263C55.8488 13.8524 55.8203 13.8802 55.791 13.9073C55.7622 13.9341 55.7331 13.9606 55.7051 13.9884C55.6725 14.0208 55.6408 14.0541 55.6094 14.088C55.5848 14.1145 55.56 14.1408 55.5361 14.1681C55.3754 14.3522 55.2299 14.5566 55.0996 14.7814L55.0342 14.8976C55.0246 14.9155 55.0161 14.9342 55.0068 14.9523C54.9859 14.993 54.9657 15.0343 54.9463 15.0763C54.9292 15.1132 54.9134 15.1508 54.8975 15.1886C54.8809 15.2278 54.8649 15.2675 54.8496 15.3077C54.831 15.3566 54.8127 15.4058 54.7959 15.4562C54.7825 15.4965 54.7691 15.537 54.7568 15.5782C54.7465 15.6129 54.738 15.6483 54.7285 15.6837C54.713 15.7412 54.6969 15.7992 54.6836 15.8585C54.6769 15.8884 54.6722 15.919 54.666 15.9493C54.6534 16.0116 54.6402 16.0746 54.6299 16.1388C54.6246 16.1713 54.6218 16.2044 54.6172 16.2374C54.6081 16.3017 54.5976 16.3666 54.5908 16.4327C54.5858 16.481 54.5839 16.53 54.5801 16.5792C54.576 16.6324 54.5701 16.686 54.5674 16.7404C54.5621 16.8462 54.5596 16.9544 54.5596 17.0646L54.5615 17.2316C54.5623 17.2613 54.5642 17.291 54.5654 17.3204C54.5675 17.3707 54.5709 17.4205 54.5742 17.4698C54.5773 17.5165 54.5817 17.5627 54.5859 17.6085C54.5905 17.6588 54.5947 17.7087 54.6006 17.7579C54.607 17.8113 54.6151 17.8639 54.623 17.9161C54.6308 17.9668 54.6383 18.017 54.6475 18.0665C54.6569 18.1174 54.6687 18.1672 54.6797 18.2169C54.6885 18.2569 54.6963 18.2968 54.7061 18.3361C54.7219 18.3997 54.7403 18.4619 54.7588 18.5236C54.7659 18.5473 54.7718 18.5714 54.7793 18.5948C54.7988 18.6556 54.8207 18.7148 54.8428 18.7736C54.8529 18.8005 54.8614 18.828 54.8721 18.8546L54.8857 18.8878C54.9007 18.9241 54.9186 18.9588 54.9346 18.9943C54.9528 19.0345 54.9697 19.0751 54.9893 19.1144C55.0288 19.194 55.0702 19.2723 55.1152 19.3478C55.4855 19.9583 55.9723 20.4239 56.5752 20.7443L56.6895 20.8029C56.7172 20.8165 56.7455 20.8289 56.7734 20.8419C56.7913 20.8502 56.8092 20.8583 56.8271 20.8663C56.8866 20.893 56.9465 20.9178 57.0068 20.9415C57.0199 20.9467 57.0328 20.9522 57.0459 20.9572C57.3495 21.0728 57.6643 21.15 57.9902 21.1906C58.0113 21.1932 58.0325 21.1951 58.0537 21.1974C58.1171 21.2043 58.1809 21.2099 58.2451 21.214C58.2656 21.2153 58.2861 21.2169 58.3066 21.2179C58.3368 21.2194 58.3671 21.2219 58.3975 21.2228L58.5273 21.2247C58.615 21.2247 58.7021 21.2217 58.7881 21.2169C58.808 21.2158 58.8278 21.2134 58.8477 21.212C58.9143 21.2075 58.9803 21.2019 59.0459 21.1945C59.0665 21.1921 59.0869 21.1893 59.1074 21.1866C59.1724 21.1783 59.2368 21.1685 59.3008 21.1573C59.3151 21.1548 59.3294 21.1522 59.3438 21.1495C59.4144 21.1364 59.4844 21.1222 59.5537 21.1056C59.5655 21.1028 59.5771 21.0988 59.5889 21.0958C59.6562 21.079 59.723 21.0613 59.7891 21.0411C59.8084 21.0353 59.8275 21.0287 59.8467 21.0226C59.9024 21.0047 59.9578 20.9862 60.0127 20.9659C60.0434 20.9546 60.074 20.9429 60.1045 20.9308C60.1504 20.9125 60.1959 20.8931 60.2412 20.8732C60.2671 20.8618 60.2927 20.85 60.3184 20.838C60.3447 20.8257 60.3723 20.8157 60.3984 20.8029L60.5117 20.7443C61.1148 20.4239 61.5963 19.9584 61.9561 19.3478C61.9998 19.2722 62.0406 19.1941 62.0791 19.1144C62.1034 19.0641 62.1243 19.012 62.1465 18.9601C62.1582 18.9325 62.1705 18.9051 62.1816 18.8771C62.2032 18.823 62.2229 18.7679 62.2422 18.712C62.2542 18.6774 62.2672 18.6429 62.2783 18.6075C62.2941 18.5576 62.3073 18.5065 62.3213 18.4552C62.3318 18.4167 62.343 18.3782 62.3525 18.339C62.3623 18.2987 62.3711 18.258 62.3799 18.2169C62.392 18.1603 62.4039 18.1032 62.4141 18.045C62.4207 18.007 62.4268 17.9685 62.4326 17.9298C62.4412 17.8732 62.4493 17.816 62.4561 17.7579C62.4606 17.7189 62.463 17.6794 62.4668 17.6398C62.473 17.5739 62.4794 17.5072 62.4834 17.4396C62.4864 17.3893 62.4885 17.3385 62.4902 17.2872C62.4909 17.2688 62.4927 17.2501 62.4932 17.2316L62.4961 17.0646C62.4961 16.1535 62.3157 15.3921 61.9561 14.7814C61.5963 14.1606 61.1148 13.6943 60.5117 13.3839C60.4608 13.3564 60.4084 13.3319 60.3564 13.3068C60.3355 13.2966 60.3151 13.2853 60.2939 13.2755C60.2525 13.2563 60.2101 13.2395 60.168 13.2218C60.1399 13.21 60.1124 13.1968 60.084 13.1857L60.0547 13.174C59.8593 13.0991 59.657 13.041 59.4482 12.9972C59.4242 12.9922 59.4002 12.9872 59.376 12.9825C59.3236 12.9725 59.2709 12.9633 59.2178 12.9552C59.1863 12.9504 59.1548 12.9456 59.123 12.9415C59.0691 12.9346 59.0147 12.93 58.96 12.9249C58.9334 12.9225 58.9067 12.9201 58.8799 12.9181C58.8211 12.9137 58.7619 12.9105 58.7021 12.9083C58.6895 12.9079 58.6768 12.9067 58.6641 12.9064L58.5947 12.9044C58.5725 12.9041 58.5497 12.9034 58.5273 12.9034ZM154.533 12.9034C153.803 12.9035 153.136 13.0635 152.533 13.3839C152.524 13.3888 152.515 13.3946 152.506 13.3995L152.424 13.4445C152.41 13.4524 152.397 13.4617 152.383 13.4698C152.345 13.4919 152.308 13.5138 152.271 13.5372C152.232 13.5626 152.194 13.5894 152.155 13.6163C152.131 13.6334 152.107 13.6504 152.083 13.6681C152.045 13.6966 152.007 13.7259 151.97 13.756C151.952 13.7704 151.934 13.7841 151.916 13.799L151.857 13.8497C151.837 13.8682 151.817 13.8884 151.797 13.9073C151.776 13.9271 151.753 13.9456 151.732 13.9659L151.688 14.0109C151.666 14.0331 151.645 14.0573 151.624 14.0802C151.596 14.1099 151.567 14.1382 151.54 14.1691C151.515 14.1983 151.492 14.2297 151.467 14.2599C151.441 14.2918 151.413 14.3225 151.388 14.3556C151.384 14.3604 151.381 14.3654 151.377 14.3702L151.245 14.5558C151.243 14.5591 151.24 14.5622 151.238 14.5656C151.192 14.6351 151.148 14.7074 151.105 14.7814L151.04 14.8976C151.03 14.9154 151.022 14.9342 151.013 14.9523C150.992 14.993 150.972 15.0343 150.952 15.0763C150.935 15.1132 150.919 15.1508 150.903 15.1886C150.887 15.2278 150.871 15.2675 150.855 15.3077C150.837 15.3566 150.819 15.4058 150.802 15.4562C150.788 15.4965 150.775 15.537 150.763 15.5782C150.751 15.6174 150.741 15.6573 150.73 15.6974C150.719 15.7412 150.707 15.7853 150.696 15.8302C150.681 15.8967 150.668 15.9645 150.655 16.0333C150.65 16.0616 150.643 16.0897 150.639 16.1183C150.626 16.1918 150.618 16.2668 150.608 16.3429C150.606 16.364 150.603 16.3851 150.601 16.4064C150.578 16.6163 150.565 16.8357 150.565 17.0646C150.565 17.6278 150.637 18.1363 150.782 18.59C150.869 18.862 150.982 19.1151 151.121 19.3478L151.191 19.4601C151.208 19.485 151.226 19.509 151.242 19.5333C151.257 19.5547 151.271 19.5758 151.286 19.5968C151.321 19.6461 151.357 19.6942 151.394 19.7413C151.406 19.7573 151.418 19.7735 151.431 19.7892C151.472 19.8401 151.514 19.8893 151.557 19.9376C151.57 19.953 151.584 19.9684 151.598 19.9835C151.636 20.0254 151.676 20.0658 151.716 20.1056C151.736 20.126 151.756 20.1472 151.777 20.1671C151.821 20.2083 151.866 20.2474 151.911 20.2863C151.926 20.2989 151.94 20.312 151.955 20.3243C152.148 20.4843 152.356 20.6247 152.581 20.7443L152.694 20.8029C152.725 20.8179 152.756 20.8306 152.787 20.8448C152.8 20.8509 152.813 20.8575 152.826 20.8634C152.883 20.889 152.94 20.9128 152.998 20.9357C153.02 20.9443 153.042 20.9528 153.063 20.9611C153.126 20.9847 153.189 21.0061 153.253 21.0265C153.264 21.03 153.274 21.0339 153.285 21.0372C153.517 21.1095 153.754 21.1604 153.998 21.1906C154.018 21.193 154.038 21.1952 154.058 21.1974C154.121 21.2043 154.184 21.2099 154.248 21.214C154.27 21.2154 154.292 21.2168 154.313 21.2179C154.343 21.2194 154.373 21.2219 154.403 21.2228L154.533 21.2247C154.621 21.2247 154.707 21.2217 154.793 21.2169C154.814 21.2157 154.835 21.2135 154.856 21.212C154.921 21.2076 154.985 21.2026 155.049 21.1954C155.073 21.1927 155.097 21.1878 155.121 21.1847C155.183 21.1766 155.245 21.1681 155.307 21.1573C155.321 21.1548 155.335 21.1522 155.35 21.1495C155.42 21.1364 155.49 21.1222 155.56 21.1056C155.571 21.1028 155.583 21.0988 155.595 21.0958C155.662 21.079 155.729 21.0613 155.795 21.0411C155.813 21.0356 155.831 21.0294 155.85 21.0236C155.909 21.0046 155.967 20.9846 156.025 20.963C156.049 20.9541 156.073 20.945 156.097 20.9357C156.149 20.9149 156.202 20.8933 156.254 20.8702C156.276 20.8603 156.299 20.8504 156.321 20.84C156.348 20.8273 156.376 20.8161 156.403 20.8029L156.517 20.7443C156.666 20.665 156.807 20.5757 156.941 20.4786C156.957 20.4677 156.971 20.4566 156.986 20.4454C157.037 20.4074 157.088 20.3689 157.137 20.3282C157.159 20.3096 157.18 20.2898 157.202 20.2706C157.24 20.2371 157.279 20.2033 157.315 20.1681C157.341 20.1436 157.366 20.1182 157.391 20.0929C157.421 20.0623 157.45 20.031 157.479 19.9991C157.503 19.974 157.524 19.9479 157.547 19.922C157.581 19.883 157.614 19.8436 157.646 19.8029C157.666 19.7782 157.686 19.7539 157.705 19.7286C157.736 19.6874 157.767 19.6456 157.797 19.6027C157.818 19.5719 157.839 19.5405 157.859 19.5089C157.87 19.4926 157.882 19.4767 157.893 19.4601L157.962 19.3478C158.052 19.1927 158.13 19.0282 158.197 18.8556C158.231 18.7692 158.262 18.6807 158.29 18.59C158.319 18.4966 158.345 18.4009 158.368 18.3029C158.457 17.9245 158.501 17.5111 158.501 17.0636C158.501 16.1528 158.321 15.392 157.962 14.7814C157.602 14.1606 157.121 13.6943 156.518 13.3839C156.399 13.3198 156.276 13.2643 156.152 13.213C156.131 13.2042 156.11 13.1941 156.089 13.1857L156.06 13.174C155.93 13.1244 155.797 13.0829 155.662 13.047C155.651 13.0441 155.641 13.041 155.63 13.0382C155.569 13.0226 155.507 13.0081 155.445 12.9952C155.425 12.9911 155.406 12.9864 155.386 12.9825C155.33 12.9718 155.274 12.9628 155.217 12.9542C155.188 12.9499 155.16 12.9462 155.131 12.9425C155.077 12.9355 155.022 12.93 154.967 12.9249C154.939 12.9224 154.912 12.9201 154.884 12.9181C154.825 12.9138 154.766 12.9104 154.707 12.9083C154.694 12.9079 154.682 12.9067 154.669 12.9064L154.601 12.9044C154.578 12.9041 154.556 12.9034 154.533 12.9034ZM116.925 13.0236L116.924 13.0245V21.1046H118.241C118.633 21.1046 118.993 21.0763 119.321 21.0187C119.403 21.0043 119.483 20.9878 119.561 20.9698C119.795 20.9158 120.011 20.8453 120.21 20.7589C120.749 20.5287 121.178 20.2186 121.495 19.8282C121.536 19.7784 121.575 19.7271 121.613 19.6759C121.727 19.5214 121.829 19.3607 121.916 19.1935C121.945 19.1378 121.973 19.0816 121.999 19.0245C122.077 18.8532 122.142 18.6753 122.193 18.4913C122.228 18.3729 122.258 18.2535 122.285 18.1339C122.294 18.0944 122.301 18.0544 122.309 18.0148C122.325 17.9312 122.342 17.8479 122.354 17.7638C122.362 17.7151 122.367 17.6662 122.373 17.6173C122.381 17.5504 122.389 17.4834 122.395 17.4161C122.399 17.3606 122.402 17.3049 122.405 17.2491C122.407 17.2176 122.411 17.1861 122.412 17.1544L122.416 16.9591C122.416 16.8062 122.409 16.6562 122.396 16.5089C122.352 15.971 122.227 15.4698 122.02 15.006C121.755 14.4054 121.316 13.925 120.702 13.5646C120.099 13.2041 119.278 13.0236 118.241 13.0236H116.925ZM108.518 14.7365L107.819 16.2374L106.55 18.9122H110.485L109.231 16.2531L108.55 14.7365H108.518ZM68.0371 17.0792H69.1641C69.6857 17.0792 70.1136 17.022 70.4482 16.9093C70.4868 16.8963 70.5245 16.8837 70.5605 16.8693C70.8753 16.7466 71.1254 16.5973 71.3105 16.421C71.337 16.3959 71.362 16.3701 71.3857 16.3439C71.4808 16.2339 71.5606 16.1195 71.624 16.0021C71.6875 15.8844 71.7349 15.7629 71.7666 15.6378C71.784 15.5766 71.7991 15.5162 71.8125 15.4572C71.8195 15.4263 71.8252 15.3956 71.8311 15.3654C71.8362 15.3387 71.8414 15.3124 71.8457 15.2863C71.8503 15.258 71.8538 15.23 71.8574 15.2023C71.8614 15.1717 71.8644 15.1414 71.8672 15.1115C71.8695 15.0865 71.8716 15.0618 71.873 15.0372C71.8738 15.0248 71.8755 15.0124 71.876 15.0001L71.8779 14.9161C71.8779 14.732 71.8605 14.5628 71.8262 14.4083C71.7691 14.1511 71.6647 13.935 71.5127 13.7599C71.28 13.4696 70.9524 13.2638 70.5293 13.1437C70.1167 13.0135 69.6401 12.9484 69.1006 12.9484H68.0371V17.0792ZM164.043 17.0792H165.169C165.751 17.0792 166.217 17.0094 166.566 16.8693C166.746 16.7993 166.905 16.7204 167.042 16.6329C167.145 16.5672 167.237 16.4967 167.316 16.421C167.343 16.3959 167.368 16.3701 167.392 16.3439C167.582 16.1236 167.709 15.8881 167.772 15.6378C167.791 15.573 167.807 15.5088 167.821 15.4464C167.84 15.3629 167.852 15.2813 167.862 15.2023C167.875 15.1033 167.884 15.0081 167.884 14.9161C167.884 14.4256 167.762 14.0402 167.519 13.7599C167.286 13.4695 166.957 13.2638 166.534 13.1437C166.122 13.0136 165.645 12.9484 165.105 12.9484H164.043V17.0792Z" fill="white"/>
<ellipse cx="18.8594" cy="16.8117" rx="1.78667" ry="7.19231" fill="white"/>
<ellipse cx="11.7524" cy="16.8119" rx="2.14401" ry="11.4231" fill="white"/>
<ellipse cx="3.21601" cy="16.8101" rx="3.21601" ry="16.5" fill="white"/>
</svg>
